<?xml version="1.0" encoding="UTF-8"?>
<!DOCTYPE svg PUBLIC "-//W3C//DTD SVG 1.1//EN" "http://www.w3.org/Graphics/SVG/1.1/DTD/svg11.dtd">
<!-- Creator: CorelDRAW X7 -->
<svg xmlns="http://www.w3.org/2000/svg" xml:space="preserve" width="2386px" height="2102px" version="1.1" style="shape-rendering:geometricPrecision; text-rendering:geometricPrecision; image-rendering:optimizeQuality; fill-rule:evenodd; clip-rule:evenodd"
viewBox="0 0 2386 2103"
 xmlns:xlink="http://www.w3.org/1999/xlink">
 <defs>
  <style type="text/css">
   <![CDATA[
    .fil2 {fill:none}
    .fil0 {fill:black}
    .fil1 {fill:#FDD349}
    .fnt0 {font-weight:normal;font-size:483.976px;font-family:'Swiss911 UCm BT'}
   ]]>
  </style>
 </defs>
 <g id="Capa_x0020_1">
  <metadata id="CorelCorpID_0Corel-Layer"/>
  <path class="fil0" d="M717 1773l-1 1 -1 2 -2 2 -1 1 -1 2 -2 1 -1 2 -1 2 -1 1 -1 2 -2 2 0 1 -1 3 -1 1 -1 2 -1 2 0 2 -1 2 -1 2 0 2 -1 2 -1 2 0 1 0 3 0 1 -1 3 0 1 0 3 0 2 0 2 -1 2 0 2 0 185 0 1 1 3 0 1 0 3 0 1 0 3 1 1 0 3 0 2 0 1 1 3 1 1 0 3 1 1 1 2 0 2 1 2 1 2 1 2 1 2 0 1 2 2 1 2 1 2 1 2 1 1 2 2 1 1 1 2 2 1 1 2 1 1 2 2 2 1 1 1 2 2 1 1 2 1 2 2 1 1 2 1 2 1 1 1 3 1 1 1 2 0 2 2 2 1 2 0 1 1 3 0 1 1 3 1 1 0 3 1 1 0 3 1 1 0 3 0 2 1 2 0 2 0 2 0 2 0 811 0 3 0 1 0 3 0 1 0 3 -1 1 0 3 0 1 -1 3 0 1 -1 3 0 2 -1 1 -1 3 0 1 -1 2 0 2 -1 2 -2 2 0 2 -1 2 -1 1 -1 2 -1 1 -1 3 -2 2 -1 1 -1 2 -1 1 -2 1 -1 2 -2 1 -1 1 -1 2 -2 2 -1 0 -2 2 -1 1 -2 1 -1 1 -2 2 -2 1 -1 0 -3 2 -1 1 -2 1 -2 1 -1 0 -3 1 -1 1 -2 1 -2 1 -2 0 -2 0 -2 1 -2 0 -2 1 -3 0 -1 0 -3 1 -1 0 -3 0 -1 0 -3 0 -1 0 -185 0 -2 0 -2 0 -2 0 -2 -1 -3 0 -1 0 -3 -1 -1 0 -3 -1 -1 0 -3 0 -1 -1 -3 -1 -1 -1 -2 -1 -2 0 -2 -1 -2 -1 -2 -1 -2 -1 -1 -1 -2 -1 -2 -1 -2 -2 -2 0 -1 -2 -2 -2 -2 0 0 -2 -2 -2 -2 -1 -1 -1 -1 -2 -2 -1 -1 -1 -2 -2 -1 -1 -1 -2 -1 -3 -2 -1 -1 -2 -1 -1 -1 -2 -1 -2 -1 -2 -1 -2 0 -1 -1 -3 -1 -1 -1 -3 -1 -1 0 -2 0 -3 -1 -1 -1 -3 0 -1 -1 -3 0 -1 0 -3 0 -1 -1 -3 0 -1 0 -3 0 -811 0 -2 0 -2 0 -2 0 -2 1 -2 0 -3 0 -1 0 -3 1 -1 0 -3 1 -1 1 -3 0 -1 0 -3 1 -1 1 -2 1 -2 1 -2 0 -2 1 -1 1 -3 1 -1 1 -2 1 -2 1 -1 2 -2 1 -2 1 -1 1 -2 2 -1 1 -2 1 -2 2zm599 139l0 -42 -25 -23 -63 0 0 160 37 0 0 -64 15 0 0 64 36 0 0 -64 -19 -16 19 -15 0 0zm-509 -65l0 136 24 24 42 0 23 -24 0 -136 -36 0 0 129 -17 0 0 -129 -36 0 0 0zm473 30l0 36 -15 0 0 -36 15 0zm169 -30l-44 0 -11 77 -3 0 -13 -77 -44 0 0 160 34 0 0 -102 1 0 16 102 14 0 15 -102 2 0 0 102 33 0 0 -160 0 0zm65 57l-1 0 -13 -57 -36 0 31 92 0 68 37 0 0 -68 32 -92 -37 0 -13 57 0 0zm-568 103l0 -32 -38 0 0 32 38 0zm116 -32l0 32 37 0 0 -32 -37 0zm-13 -105l-25 -23 -39 0 -24 23 0 48 25 23 26 2 0 33 -15 0 0 -20 -36 0 0 27 24 24 40 0 24 -24 0 -48 -24 -23 -28 -3 0 -32 15 0 0 21 37 0 0 -28 0 0zm141 -23l-53 0 -23 160 36 0 3 -30 21 0 4 30 35 0 -23 -160 0 0zm-34 100l5 -66 3 0 8 66 -16 0zm117 -633l126 -89 -158 0 -49 -149 -49 149 -159 0 129 91 -48 148 126 -91 129 93 -47 -152 0 0zm399 -431l0 -1 0 -3 0 -1 0 -3 -1 -2 0 -2 0 -2 -1 -2 0 -2 -1 -2 0 -2 0 -2 -1 -2 -1 -1 -1 -3 -1 -2 0 -1 -1 -3 -1 -1 -1 -2 -1 -1 -1 -2 -1 -2 -1 -2 -2 -2 0 -1 -2 -2 -1 -2 -1 0 -2 -2 -1 -2 -2 -1 -1 -2 -2 -2 -1 0 -1 -2 -2 -2 -1 0 -2 -2 -3 -1 -1 -2 -2 0 -1 -1 -2 -1 -2 -2 -2 0 -2 -1 -1 -1 -3 -1 -1 -1 -3 0 -2 0 -1 -1 -3 0 -1 -1 -3 0 -1 -1 -3 0 -1 -1 -3 0 -1 0 -3 0 -1 0 -3 0 -811 0 -2 0 -2 0 -2 0 -2 0 -2 0 -3 1 -1 0 -3 1 -1 0 -3 1 -1 0 -3 1 -1 0 -3 0 -1 1 -2 1 -2 1 -2 1 -2 0 -1 2 -3 1 -1 1 -2 0 -2 2 -1 1 -2 2 -2 0 -1 2 -2 1 -1 1 -2 2 -2 2 -1 1 -2 2 -1 2 -1 1 -1 2 -2 1 -1 2 -1 2 -1 1 -1 2 -2 2 0 1 -1 3 -1 1 -1 2 -1 1 0 3 -1 2 -1 1 0 3 -1 1 -1 3 0 1 0 3 0 1 -1 3 0 1 0 3 0 2 0 1 -1 3 0 1 0 764 0 2 1 2 0 2 0 2 0 2 0 2 1 1 0 3 0 2 0 2 1 2 1 2 0 2 1 2 1 2 0 1 1 3 1 1 1 2 1 2 0 2 2 2 1 1 1 2 1 2 1 1 2 2 1 2 1 1 2 2 1 1 1 2 2 2 2 0 1 2 2 2 1 1 2 1 2 1 1 2 2 0 2 2 1 1 3 1 1 0 2 1 2 1 2 1 2 1 1 1 3 0 1 1 3 0 1 1 3 1 1 0 3 0 1 1 3 0 2 0 2 0 2 0 2 0 2 0 811 0 3 0 1 0 3 0 1 0 3 0 1 0 3 -1 1 0 3 0 1 -1 3 -1 1 0 2 -1 3 0 1 -1 2 -1 2 -1 2 -1 2 -1 2 0 2 -1 1 -1 2 -2 1 0 3 -2 2 -1 1 -1 2 -1 1 -2 1 -2 2 -1 1 -1 1 -2 2 -1 2 -2 0 -1 2 -2 2 -1 0 -2 2 -2 1 -2 1 -1 1 -2 1 -1 1 -2 1 -3 1 -1 0 -2 1 -2 1 -2 1 -1 1 -3 0 -2 0 -2 1 -2 0 -2 1 -2 0 -2 0 -2 1 -2 0 -2 0 -2 0 -2 0 -2 0 -764z"/>
  <g transform="matrix(1.51602 0 0 1 -1483.64 -692.583)">
   <text x="1193" y="1051" id="tex" class="fil0 fnt0">MUESTRA
    <metadata id="CorelCorpID_1">
     <odm name="Nom" value="" type="0"/>
    </metadata>
   </text>
  </g>
  <g transform="matrix(1.51602 0 0 1 -1826.31 -303.733)">
   <text x="1193" y="1051"  class="fil0 fnt0">DEPARTMENT</text>
  </g>
  <path class="fil1" d="M738 1793c-11,11 -16,24 -16,39l0 185c0,14 5,27 16,38 11,10 23,16 39,16l811 0c16,0 29,-6 39,-16 11,-11 16,-24 16,-38l0 -185c0,-15 -5,-28 -16,-39 -10,-11 -23,-15 -39,-15l-811 0c-16,0 -28,4 -39,15zm905 -910c0,-14 -5,-27 -16,-38 -10,-11 -23,-16 -39,-16l-811 0c-16,0 -28,5 -39,16 -11,11 -16,24 -16,38l0 764c0,15 5,28 16,39 11,10 23,15 39,15l811 0c16,0 29,-5 39,-15 11,-11 16,-24 16,-39l0 -764zm-85 292l-278 0 -87 -263 -88 263 -280 0 229 161 -85 264 223 -161 228 164 -84 -269 222 -159 0 0zm-92 26l-209 0 -64 -197 -66 197 -210 0 171 121 -63 196 167 -119 170 122 -63 -201 167 -119 0 0zm143 -338c-6,-6 -13,-8 -21,-8l-811 0c-8,0 -15,2 -21,8 -5,6 -9,13 -9,20l0 764c0,8 4,15 9,20 6,6 13,9 21,9l811 0c8,0 15,-3 21,-9 5,-5 8,-12 8,-20l0 -764c0,-7 -3,-14 -8,-20zm-832 940c-8,0 -15,3 -21,8 -5,6 -9,13 -9,21l0 185c0,7 4,14 9,20 6,6 13,8 21,8l811 0c8,0 15,-2 21,-8 5,-6 8,-13 8,-20l0 -185c0,-8 -3,-15 -8,-21 -6,-5 -13,-8 -21,-8l-811 0z"/>
  <rect id="rectext" class="fil2" x="321" y="4" width="1728" height="368">
   <metadata id="CorelCorpID_2">
    <odm name="Nom" value="muestra" type="0"/>
   </metadata>
  </rect>
 </g>
</svg>
