<?xml version="1.0" encoding="UTF-8"?>
<!DOCTYPE svg PUBLIC "-//W3C//DTD SVG 1.1//EN" "http://www.w3.org/Graphics/SVG/1.1/DTD/svg11.dtd">
<!-- Creator: CorelDRAW X7 -->
<svg xmlns="http://www.w3.org/2000/svg" xml:space="preserve" width="2209px" height="2043px" version="1.1" style="shape-rendering:geometricPrecision; text-rendering:geometricPrecision; image-rendering:optimizeQuality; fill-rule:evenodd; clip-rule:evenodd"
viewBox="0 0 2209 2044"
 xmlns:xlink="http://www.w3.org/1999/xlink">
 <defs>
  <style type="text/css">
   <![CDATA[
    .fil24 {fill:none;fill-rule:nonzero}
    .fil0 {fill:black}
    .fil21 {fill:#B83867}
    .fil19 {fill:#D12F3F}
    .fil13 {fill:#F97072}
    .fil1 {fill:black;fill-rule:nonzero}
    .fil9 {fill:#1F85A8;fill-rule:nonzero}
    .fil3 {fill:#52BFBF;fill-rule:nonzero}
    .fil7 {fill:#B83867;fill-rule:nonzero}
    .fil2 {fill:#D12F3F;fill-rule:nonzero}
    .fil5 {fill:#E8603B;fill-rule:nonzero}
    .fil11 {fill:#F0BF18;fill-rule:nonzero}
    .fil16 {fill:#F97072;fill-rule:nonzero}
    .fil23 {fill:#FBF7F0;fill-rule:nonzero}
    .fil18 {fill:#FFFFE9;fill-rule:nonzero}
    .fil22 {fill:#B83867;fill-opacity:0.301961}
    .fil20 {fill:#D12F3F;fill-opacity:0.301961}
    .fil14 {fill:#F97072;fill-opacity:0.301961}
    .fil10 {fill:#1F85A8;fill-rule:nonzero;fill-opacity:0.301961}
    .fil4 {fill:#52BFBF;fill-rule:nonzero;fill-opacity:0.301961}
    .fil8 {fill:#B83867;fill-rule:nonzero;fill-opacity:0.301961}
    .fil15 {fill:#D12F3F;fill-rule:nonzero;fill-opacity:0.301961}
    .fil6 {fill:#E8603B;fill-rule:nonzero;fill-opacity:0.301961}
    .fil12 {fill:#F0BF18;fill-rule:nonzero;fill-opacity:0.301961}
    .fil17 {fill:#F97072;fill-rule:nonzero;fill-opacity:0.301961}
    .fnt0 {font-weight:normal;font-size:709.228px;font-family:'Betty'}
   ]]>
  </style>
 </defs>
 <g id="Capa_x0020_1">
  <metadata id="CorelCorpID_0Corel-Layer"/>
  <g transform="matrix(0.905454 0 0 1 -919.753 966.66)">
   <text x="1105" y="1022" id="_4388489280" class="fil0 fnt0">MUESTRA
    <metadata id="CorelCorpID_1">
     <odm name="Nom" value="" type="0"/>
    </metadata>
   </text>
  </g>
  <path class="fil1" d="M295 1357c13,-1 40,-1 81,-3 -11,-383 -9,-766 8,-1146 -19,0 -47,2 -85,4 13,356 10,736 -4,1145l0 0 0 0zm-53 -1115c57,-1 127,0 205,8 3,-13 6,-23 9,-32 4,-8 6,-19 6,-30 -45,-3 -93,-4 -141,-4 -32,0 -65,0 -98,1 0,4 0,8 0,12 0,7 2,15 2,19 2,9 9,16 17,26l0 0zm-29 1115c43,0 129,0 259,0 0,-6 0,-12 0,-18 0,-6 0,-13 0,-17 -2,-8 -6,-19 -12,-28 -14,0 -29,0 -45,0 -66,0 -132,2 -199,9 -4,11 -7,22 -7,32 0,8 0,16 4,22l0 0 0 0 0 0z"/>
  <path class="fil2" d="M1537 537c25,31 121,83 132,78 14,-6 21,-89 21,-111 0,-21 -3,-43 -13,-62 -12,-17 -26,-20 -45,-9 -21,9 -22,35 -24,57 -51,-48 -103,4 -71,47l0 0z"/>
  <path class="fil3" d="M1100 973c-9,17 -4,37 -4,53 -17,-1 -50,-8 -54,19 -6,55 119,57 121,47 13,-35 15,-111 -24,-132 -17,-8 -31,-2 -39,13l0 0 0 0 0 0z"/>
  <path class="fil4" d="M1111 979c-7,15 -6,35 -3,54 -17,-3 -52,-8 -54,16 -6,58 117,58 122,49 11,-35 14,-111 -28,-131 -13,-9 -28,-2 -37,12l0 0 0 0 0 0z"/>
  <path class="fil3" d="M1671 326c-4,7 -2,20 -2,28 -11,0 -29,-4 -31,10 -2,31 66,34 67,27 9,-19 9,-62 -13,-72 -9,-6 -17,-2 -21,7l0 0 0 0z"/>
  <path class="fil4" d="M1677 329c-4,8 -2,19 -2,29 -8,-2 -28,-4 -28,11 -5,30 65,30 65,26 8,-19 8,-62 -15,-74 -7,-4 -16,0 -20,8l0 0z"/>
  <path class="fil5" d="M849 578c-15,4 -26,19 -33,29 -8,-12 -25,-33 -39,-21 -38,26 32,99 40,97 27,-15 71,-56 61,-90 -4,-12 -17,-19 -29,-15l0 0z"/>
  <path class="fil6" d="M861 584c-12,4 -23,18 -31,28 -9,-10 -24,-31 -41,-19 -35,28 34,98 41,96 26,-12 72,-55 60,-91 -5,-12 -15,-17 -29,-14l0 0 0 0z"/>
  <path class="fil5" d="M1151 425c-14,-30 -35,-61 -54,-89 -12,-19 -27,-39 -49,-42 -19,-1 -25,19 -26,32 0,17 10,32 24,40 -27,3 -51,27 -37,53 20,44 99,25 131,15 0,0 3,0 3,0 4,4 9,-1 8,-8l0 -1 0 0z"/>
  <path class="fil6" d="M1163 434c-15,-33 -33,-63 -52,-93 -11,-18 -26,-37 -50,-41 -18,-2 -25,19 -25,33 -2,17 7,31 22,39 -26,3 -49,27 -35,53 20,43 97,26 132,15 0,0 0,0 0,0 4,4 12,0 8,-6l0 0 0 0z"/>
  <path class="fil7" d="M1212 702c5,-13 5,-32 -10,-38 -47,-22 -97,10 -129,39 -3,3 -3,3 -3,4 -2,3 -2,4 0,6 19,21 41,40 65,58 12,11 32,27 52,23 38,-6 15,-49 -4,-64 13,-6 26,-14 29,-28z"/>
  <path class="fil8" d="M1223 707c3,-14 3,-33 -13,-39 -45,-20 -94,11 -127,39 -2,3 -2,4 -2,4 -2,2 -2,5 0,7 16,23 41,38 62,57 14,13 35,28 53,25 39,-6 16,-50 -5,-66 15,-6 28,-14 32,-27l0 0z"/>
  <path class="fil7" d="M1615 997c7,-16 4,-39 -14,-46 -53,-25 -113,14 -154,48 -2,0 -2,2 -2,5 -2,2 -2,4 0,6 21,27 49,47 76,70 16,14 41,31 64,29 45,-9 18,-60 -6,-79 16,-5 32,-18 36,-33l0 0 0 0 0 0z"/>
  <path class="fil8" d="M1628 1001c6,-14 4,-36 -14,-45 -54,-24 -114,12 -155,48 -2,2 -2,4 -2,6 -2,2 -2,4 0,6 21,26 50,47 76,70 15,14 42,30 63,29 46,-8 19,-60 -5,-78 17,-8 32,-19 37,-36l0 0z"/>
  <path class="fil9" d="M575 515c-19,54 54,123 98,144 11,4 122,-112 64,-157 -26,-21 -51,17 -65,33 -13,-16 -29,-39 -51,-45 -21,-7 -39,2 -46,25l0 0z"/>
  <path class="fil10" d="M586 519c-19,57 52,125 96,144 13,5 124,-111 66,-157 -27,-19 -52,17 -66,33 -14,-16 -30,-37 -52,-43 -20,-6 -39,2 -44,23l0 0 0 0 0 0z"/>
  <path class="fil9" d="M1292 362c-4,4 0,13 7,10 28,-10 60,-18 88,-32 15,-7 34,-19 35,-38 0,-28 -41,-28 -59,-22 3,-25 -15,-60 -41,-41 -13,8 -21,31 -23,45 -7,25 -5,52 -7,78l0 0 0 0z"/>
  <path class="fil10" d="M1303 366c-4,6 0,14 6,13 28,-10 60,-21 86,-33 14,-9 36,-20 37,-39 0,-27 -40,-29 -59,-23 4,-25 -14,-57 -42,-42 -11,9 -20,32 -22,47 -6,26 -4,51 -6,77l0 0z"/>
  <path class="fil9" d="M1085 1275c2,7 11,7 12,0 7,-31 12,-62 17,-93 0,-16 0,-39 -17,-48 -22,-15 -43,20 -49,39 -19,-15 -57,-18 -55,13 0,17 16,34 26,44 20,18 43,30 66,45l0 0 0 0z"/>
  <path class="fil10" d="M1096 1282c1,3 9,3 12,-3 6,-31 12,-62 14,-90 2,-16 2,-41 -14,-51 -23,-15 -46,20 -50,40 -19,-16 -58,-18 -55,15 0,14 16,32 26,43 21,17 44,28 67,46l0 0z"/>
  <path class="fil9" d="M1490 663c-2,4 0,7 4,7 19,-6 37,-11 56,-20 7,-4 22,-12 22,-25 0,-16 -24,-18 -37,-14 2,-14 -8,-37 -26,-25 -9,4 -13,19 -15,26 -4,17 -2,34 -4,51l0 0 0 0z"/>
  <path class="fil10" d="M1490 670c-2,2 2,9 6,7 17,-7 37,-13 54,-21 10,-4 22,-12 22,-25 0,-16 -24,-16 -37,-14 2,-15 -8,-35 -25,-24 -7,4 -14,18 -16,28 -2,17 -2,34 -4,49l0 0 0 0z"/>
  <path class="fil9" d="M1389 1224c0,6 8,14 15,8 24,-25 49,-50 70,-77 12,-14 26,-39 16,-57 -12,-29 -54,-8 -72,6 -6,-27 -41,-51 -59,-21 -11,17 -7,42 -3,58 9,29 23,56 33,83l0 0z"/>
  <path class="fil10" d="M1402 1230c-3,6 6,12 12,8 24,-25 52,-49 72,-78 10,-15 24,-37 17,-56 -13,-28 -56,-8 -72,7 -9,-28 -44,-52 -62,-21 -8,14 -4,41 0,58 5,29 23,53 33,82l0 0 0 0 0 0z"/>
  <path class="fil9" d="M1104 629c-3,7 5,13 12,7 23,-24 45,-46 66,-70 9,-12 23,-36 14,-54 -10,-25 -49,-6 -66,8 -8,-24 -39,-48 -57,-20 -8,15 -5,39 0,54 6,27 21,51 31,75l0 0 0 0 0 0z"/>
  <path class="fil10" d="M1114 636c0,6 6,12 12,6 22,-22 45,-45 65,-70 11,-14 23,-35 15,-53 -10,-27 -49,-8 -66,5 -8,-24 -39,-47 -55,-18 -10,14 -6,37 -2,53 8,27 21,50 31,77l0 0 0 0 0 0z"/>
  <path class="fil9" d="M1755 543c-3,4 4,12 10,9 27,-19 54,-37 79,-60 14,-12 31,-31 24,-50 -6,-28 -49,-18 -67,-5 -3,-27 -32,-57 -54,-29 -10,11 -10,36 -10,51 2,28 12,56 18,84l0 0 0 0z"/>
  <path class="fil10" d="M1763 549c-1,6 4,13 11,9 27,-19 55,-38 80,-58 12,-13 29,-33 25,-52 -9,-29 -50,-15 -68,-4 -3,-26 -32,-58 -53,-30 -11,11 -13,37 -11,53 2,29 11,53 16,82l0 0 0 0z"/>
  <path class="fil11" d="M917 1131c0,0 1,0 1,0 25,8 81,21 97,-10 10,-21 -8,-40 -27,-40 11,-5 19,-15 16,-30 0,-11 -5,-25 -18,-22 -16,1 -29,16 -36,28 -13,23 -28,45 -40,68 -2,4 4,9 7,6l0 0 0 0 0 0z"/>
  <path class="fil12" d="M926 1135c0,0 0,0 3,0 24,8 80,20 94,-10 11,-18 -6,-37 -27,-39 13,-6 19,-17 19,-29 0,-10 -6,-24 -19,-24 -18,1 -29,16 -36,30 -15,20 -29,44 -39,68 -3,4 3,7 5,4l0 0 0 0z"/>
  <path class="fil11" d="M917 617c1,0 1,0 1,0 34,10 107,27 128,-15 12,-24 -10,-48 -35,-50 12,-9 23,-22 23,-40 -2,-12 -9,-31 -27,-29 -21,2 -35,21 -47,40 -19,26 -38,58 -52,88 -2,6 5,10 9,6l0 0 0 0z"/>
  <path class="fil12" d="M931 624c0,0 0,0 0,0 33,10 107,26 127,-13 12,-27 -10,-52 -35,-52 13,-7 25,-22 23,-39 0,-14 -8,-33 -24,-30 -23,2 -38,21 -48,38 -18,27 -37,58 -52,89 -4,7 4,10 9,7l0 0z"/>
  <path class="fil11" d="M659 259c0,0 0,0 3,0 34,11 118,30 141,-17 14,-28 -10,-54 -38,-57 13,-8 26,-25 24,-43 0,-14 -9,-36 -29,-35 -25,4 -39,25 -53,43 -21,34 -41,66 -58,101 -2,6 6,10 10,8l0 0z"/>
  <path class="fil12" d="M673 266c0,0 0,0 3,0 35,12 119,31 141,-15 15,-29 -9,-55 -39,-58 15,-9 28,-24 25,-44 0,-15 -8,-38 -29,-34 -24,2 -39,23 -53,43 -21,31 -41,67 -55,99 -4,7 3,13 7,9l0 0 0 0 0 0z"/>
  <path class="fil5" d="M1700 711c5,26 24,38 49,35 20,-1 33,-22 43,-39 5,27 6,54 35,62 35,9 56,-16 64,-49 8,-39 -11,-89 -31,-122 -6,-10 -19,-36 -33,-39 -2,0 -4,3 -4,4 -2,0 -2,0 -4,3 -27,27 -61,46 -88,76 -17,17 -37,43 -31,69l0 0 0 0 0 0z"/>
  <path class="fil6" d="M1712 718c6,24 25,37 50,35 20,-3 32,-23 43,-40 3,28 6,55 35,62 35,9 55,-16 63,-49 8,-39 -10,-88 -30,-121 -7,-10 -19,-37 -33,-39 -3,0 -4,2 -4,3 -2,0 -4,0 -4,0 -27,29 -63,51 -89,79 -17,16 -38,43 -31,70l0 0 0 0z"/>
  <path class="fil11" d="M1260 890c-2,-12 -15,-20 -22,-30 10,-6 30,-20 20,-35 -23,-35 -95,25 -93,30 11,28 47,71 80,62 13,-4 17,-12 15,-27l0 0 0 0z"/>
  <path class="fil12" d="M1270 897c-2,-12 -15,-23 -22,-31 10,-6 32,-20 20,-37 -23,-33 -95,26 -90,33 9,24 45,67 77,62 13,-5 19,-15 15,-27l0 0 0 0z"/>
  <path class="fil11" d="M1595 389c-4,-14 -16,-25 -27,-35 11,-8 35,-22 23,-41 -25,-37 -105,28 -103,37 12,29 51,78 88,68 15,-3 20,-15 19,-29l0 0 0 0z"/>
  <path class="fil12" d="M1608 395c-5,-15 -17,-24 -28,-35 13,-8 35,-23 25,-41 -26,-37 -107,29 -105,37 13,29 52,78 89,68 14,-2 21,-14 19,-29l0 0 0 0z"/>
  <path class="fil11" d="M1665 710c-4,-11 -14,-21 -23,-29 11,-7 29,-18 20,-31 -22,-33 -86,20 -83,27 10,25 43,64 72,55 10,-2 16,-12 14,-22l0 0 0 0z"/>
  <path class="fil12" d="M1673 713c-2,-10 -12,-17 -20,-26 9,-6 28,-19 18,-32 -20,-31 -84,22 -82,28 10,23 41,62 72,56 10,-5 16,-13 12,-26l0 0 0 0 0 0z"/>
  <path class="fil5" d="M1498 448c-12,-23 -27,-47 -39,-68 -10,-14 -21,-28 -37,-30 -14,-2 -18,14 -20,25 0,11 7,23 19,28 -22,2 -38,21 -28,39 15,34 73,19 97,12 0,0 0,0 2,-1 2,4 8,0 6,-5l0 0 0 0 0 0z"/>
  <path class="fil6" d="M1509 453c-13,-23 -28,-45 -42,-68 -8,-14 -18,-27 -35,-29 -14,-2 -20,13 -20,23 0,12 9,22 19,31 -22,0 -38,18 -27,38 14,32 71,19 96,11 0,0 0,0 0,0 5,2 10,-2 9,-6l0 0 0 0 0 0z"/>
  <path class="fil13" d="M1366 500c21,-8 38,6 42,20 6,-14 23,-28 43,-20 23,8 24,35 16,55 -8,23 -59,65 -59,65 0,0 -52,-42 -60,-65 -8,-20 -4,-47 18,-55l0 0 0 0z"/>
  <path class="fil14" d="M1377 504c20,-8 37,8 41,20 6,-12 20,-28 43,-20 20,8 25,35 17,58 -8,22 -60,63 -60,63 0,0 -52,-41 -59,-63 -9,-23 -5,-50 18,-58l0 0 0 0z"/>
  <path class="fil15" d="M1548 541c24,31 121,84 131,80 15,-9 21,-88 21,-113 0,-21 -3,-43 -13,-60 -12,-18 -29,-20 -45,-11 -20,9 -23,39 -24,59 -50,-50 -105,2 -70,45l0 0 0 0z"/>
  <path class="fil3" d="M1529 866c0,0 2,-2 4,-4 23,-33 49,-97 35,-138 -6,-14 -25,-31 -41,-25 -20,8 -33,29 -41,50 -8,-17 -22,-31 -41,-33 -18,0 -33,8 -36,26 -3,22 19,48 32,61 25,24 53,40 77,63 5,4 7,2 11,0l0 0z"/>
  <path class="fil4" d="M1535 855c2,0 2,0 4,-1 23,-33 50,-99 36,-141 -7,-11 -25,-28 -42,-22 -19,8 -33,29 -41,48 -8,-15 -22,-32 -41,-32 -19,0 -33,6 -35,27 -4,21 19,46 31,60 24,25 53,41 78,63 4,3 8,3 10,-2l0 0 0 0z"/>
  <path class="fil5" d="M1651 210c-21,17 -43,60 -4,66 18,2 38,-12 53,-25 20,-19 45,-35 62,-58 1,-1 1,-4 0,-5 0,0 0,-3 -3,-4 -33,-30 -82,-60 -127,-39 -17,5 -17,24 -13,39 4,12 17,20 32,26z"/>
  <path class="fil6" d="M1661 216c-21,15 -43,58 -7,64 21,2 42,-12 55,-23 22,-18 44,-37 63,-58 2,-2 2,-3 0,-6 0,-1 0,-4 -3,-4 -32,-29 -82,-61 -129,-40 -15,7 -15,26 -10,39 4,14 17,22 31,28l0 0 0 0z"/>
  <path class="fil16" d="M1294 541c11,-18 7,-41 5,-61 21,1 60,7 64,-21 7,-66 -140,-70 -144,-58 -14,41 -17,129 30,154 19,11 38,4 45,-14l0 0 0 0 0 0z"/>
  <path class="fil17" d="M1305 545c10,-17 6,-41 4,-62 21,2 60,11 64,-20 8,-65 -140,-68 -144,-58 -15,41 -17,132 31,157 19,7 34,1 45,-17l0 0 0 0 0 0z"/>
  <path class="fil18" d="M1233 502c-2,-2 -2,-4 -2,-6 -2,-4 -8,-2 -6,2 0,2 1,4 4,6 4,4 6,0 4,-2l0 0 0 0z"/>
  <path class="fil18" d="M1241 463c-4,-2 -6,-4 -8,-9 -2,-1 -7,0 -4,3 2,2 2,4 4,6 2,2 5,2 6,4 2,0 2,-2 2,-4l0 0 0 0z"/>
  <path class="fil18" d="M1253 424c0,-2 0,-5 -2,-5 0,-1 -2,-1 -2,-4 0,0 -1,-1 -4,-1 -1,1 -1,4 -1,5 1,0 1,3 1,5 3,0 4,1 4,1 2,3 6,0 4,-1l0 0 0 0z"/>
  <path class="fil18" d="M1268 454c-2,-1 -4,-3 -6,-6 -2,-2 -7,0 -4,3 2,2 4,6 8,8 2,0 4,-2 2,-5l0 0 0 0z"/>
  <path class="fil18" d="M1280 418c-1,-3 -3,-4 -6,-4 -2,-2 -4,0 -2,1 0,3 2,4 5,7 2,2 6,-3 3,-4l0 0 0 0z"/>
  <path class="fil18" d="M1296 451c-2,-5 -4,-7 -5,-9 0,0 -3,0 -4,0 0,2 0,2 0,4 1,2 4,7 7,7 2,1 5,0 2,-2l0 0 0 0 0 0z"/>
  <path class="fil18" d="M1317 428c0,0 -2,-3 -2,-4 0,0 -2,-2 -2,-2 -2,-4 -6,0 -4,2 0,1 2,1 2,4 0,0 2,2 4,2 0,3 2,0 2,-2z"/>
  <path class="fil18" d="M1330 459c-3,-2 -3,-5 -4,-6 0,0 -4,1 -3,4 3,0 3,2 4,4 3,0 3,-2 3,-2l0 0 0 0z"/>
  <path class="fil18" d="M1348 442c-2,-2 -2,-4 -4,-5 -2,-3 -4,0 -4,1 0,2 2,2 2,4 0,2 2,2 2,4 2,0 4,-2 4,-4l0 0 0 0z"/>
  <path class="fil18" d="M1270 487c-2,-2 -4,-4 -4,-7 -2,-3 -6,-3 -6,1 2,2 2,4 2,4 2,2 4,5 6,5 0,2 2,0 2,-3l0 0 0 0 0 0z"/>
  <path class="fil18" d="M1262 506c-2,-2 -4,-4 -7,-6 -2,-2 -6,2 -4,4 2,2 4,4 9,7 2,0 2,-3 2,-5l0 0 0 0z"/>
  <path class="fil18" d="M1233 433c-2,-3 -4,-5 -7,-9 0,-2 -3,-2 -3,1 0,5 3,8 6,9 2,3 6,0 4,-1z"/>
  <path class="fil18" d="M1262 543c-2,-2 -7,-4 -7,-6 -2,-2 -6,0 -4,2 2,4 4,6 9,6 2,2 2,0 2,-2l0 0 0 0z"/>
  <path class="fil18" d="M1287 523c-3,0 -3,-3 -4,-3 -3,-4 -6,-1 -4,3 1,1 4,3 5,5 4,0 4,-4 3,-5l0 0 0 0z"/>
  <path class="fil18" d="M1291 472c-3,-4 -4,-5 -4,-7 -3,-2 -3,-2 -4,0 -3,0 -3,2 -3,2 3,1 4,5 7,6 1,3 4,0 4,-1z"/>
  <path class="fil18" d="M1239 530c-1,0 -1,-2 -4,-4 0,0 -2,-2 -2,-3 -2,0 -2,0 -2,1 0,4 2,9 7,9 1,2 3,0 1,-3l0 0 0 0z"/>
  <path class="fil18" d="M1249 485c-1,-4 -5,-5 -8,-8 -2,-1 -6,0 -3,3 1,3 6,5 10,7 1,0 1,-2 1,-2l0 0 0 0z"/>
  <path class="fil16" d="M1701 936c11,-19 8,-47 4,-68 24,2 69,8 73,-25 8,-72 -155,-75 -160,-63 -17,45 -19,146 35,172 20,11 39,4 48,-16l0 0 0 0z"/>
  <path class="fil17" d="M1714 942c10,-20 6,-48 4,-70 22,4 66,11 70,-22 9,-75 -154,-77 -158,-65 -16,46 -19,144 32,173 21,10 39,2 52,-16z"/>
  <path class="fil18" d="M1632 883c-2,-2 -4,-5 -4,-7 -3,-2 -6,0 -5,2 0,3 0,3 0,5 2,2 2,2 5,3 2,0 4,-1 4,-3l0 0z"/>
  <path class="fil18" d="M1634 843c-2,-1 -2,-3 -4,-6 0,-2 -2,-2 -5,-2 0,0 -2,2 -2,5 2,2 5,3 5,6 2,4 6,1 6,-3l0 0z"/>
  <path class="fil18" d="M1647 816c-3,-2 -5,-4 -7,-5 -2,-4 -6,-3 -4,1 0,0 2,2 2,4 2,3 4,3 4,5 2,0 5,-2 5,-5l0 0z"/>
  <path class="fil18" d="M1662 881c-1,-5 -4,-7 -5,-11 -3,-2 -8,0 -6,2 2,4 6,9 7,11 3,2 7,0 4,-2l0 0 0 0z"/>
  <path class="fil18" d="M1675 843c-2,-1 -2,-3 -4,-6 -2,-4 -9,-2 -6,3 2,2 4,6 6,6 2,1 6,0 4,-3z"/>
  <path class="fil18" d="M1662 796c0,-2 -1,-2 -1,-4 0,0 -3,-2 -3,-4 -1,-3 -5,0 -4,4 0,0 3,2 3,4 1,0 1,2 4,2 1,2 1,0 1,-2z"/>
  <path class="fil18" d="M1636 790c-2,-5 -4,-6 -8,-8 0,-2 -5,0 -3,2 3,4 5,6 7,8 2,0 4,0 4,-2l0 0 0 0 0 0z"/>
  <path class="fil18" d="M1625 814c0,0 -2,-2 -2,-3 -1,-3 -5,0 -4,3 0,0 3,2 3,2 1,3 3,0 3,-2z"/>
  <path class="fil18" d="M1657 913c-3,-1 -4,-4 -6,-8 0,-2 -4,0 -4,4 2,3 4,4 7,6 0,2 4,0 3,-2l0 0 0 0 0 0z"/>
  <path class="fil18" d="M1653 938c-2,-2 -4,-5 -6,-6 -3,-3 -7,1 -5,4 2,2 7,4 9,6 2,0 3,-4 2,-4l0 0 0 0z"/>
  <path class="fil18" d="M1692 915c-2,-3 -5,-3 -7,-6 -2,-2 -4,0 -2,3 2,1 4,3 7,5 2,0 2,-2 2,-2z"/>
  <path class="fil18" d="M1683 938c-2,-2 -6,-2 -8,-5 -2,-1 -2,0 -4,0 0,3 0,3 2,5 2,2 4,2 8,4 2,0 2,-2 2,-4l0 0z"/>
  <path class="fil18" d="M1697 874c-3,-2 -5,-6 -10,-8 -2,-2 -6,2 -2,4 2,2 5,6 9,8 2,3 3,0 3,-4l0 0z"/>
  <path class="fil18" d="M1697 814c-1,-2 -1,-3 -3,-6 -2,-1 -7,0 -4,4 2,2 2,2 4,4 2,3 3,0 3,-2l0 0 0 0z"/>
  <path class="fil18" d="M1694 785c0,-1 -2,-1 -2,-3 -2,-2 -7,0 -5,2 3,1 3,4 5,4 2,2 4,0 2,-3z"/>
  <path class="fil18" d="M1735 804c-2,-1 -2,-4 -2,-4 -2,-2 -7,0 -4,3 2,1 2,1 4,1 2,3 2,0 2,0l0 0 0 0z"/>
  <path class="fil18" d="M1733 827c-2,-4 -4,-6 -7,-11 -3,0 -6,3 -3,5 1,2 3,6 6,8 2,2 6,0 4,-2z"/>
  <path class="fil18" d="M1704 842c0,0 -3,-2 -3,-2 -1,-3 -1,-3 -4,-5 0,-2 -3,0 -1,2 0,3 1,3 1,5 3,1 3,1 4,1 3,3 4,0 3,-1z"/>
  <path class="fil18" d="M1739 854c-2,-3 -2,-4 -4,-7 -2,-1 -6,3 -4,4 2,0 4,3 6,4 2,0 2,-1 2,-1l0 0 0 0z"/>
  <path class="fil18" d="M1763 829c0,-2 -1,-4 -4,-6 -1,-2 -6,0 -4,4 3,2 3,4 4,4 3,2 4,0 4,-2l0 0 0 0z"/>
  <path class="fil18" d="M1762 850c-3,-4 -4,-7 -7,-8 -2,-2 -3,1 -3,1 1,4 6,7 7,8 3,0 4,0 3,-1l0 0 0 0z"/>
  <path class="fil18" d="M1675 819c-2,0 -2,-3 -2,-3 -2,-2 -2,-2 -4,-4 0,-1 -4,0 -2,2 0,2 0,2 2,5 0,2 2,2 2,2 2,2 4,0 4,-2l0 0z"/>
  <path class="fil18" d="M1651 851c0,-1 0,-1 0,-4 -2,-1 -7,0 -4,4 2,0 2,0 4,3 0,0 2,-3 0,-3z"/>
  <path class="fil18" d="M1632 909c0,-2 0,-2 -2,-4 0,0 0,-2 0,-2 -2,-2 -7,0 -7,2 2,2 2,2 2,4 3,0 3,0 5,3 2,0 2,-3 2,-3l0 0z"/>
  <path class="fil16" d="M692 307c-20,6 -37,29 -49,45 -14,-16 -41,-54 -66,-33 -57,45 56,161 66,157 43,-22 115,-90 96,-144 -5,-23 -24,-32 -47,-25l0 0z"/>
  <path class="fil17" d="M703 313c-21,6 -37,27 -51,43 -14,-16 -40,-52 -65,-30 -57,45 54,159 66,154 43,-21 116,-89 97,-144 -6,-23 -24,-29 -47,-23l0 0 0 0z"/>
  <path class="fil18" d="M580 348c-3,-2 -5,-5 -5,-7 0,-4 -4,-1 -4,0 0,5 2,7 4,9 2,2 7,0 5,-2l0 0 0 0z"/>
  <path class="fil18" d="M586 389c-3,-3 -4,-4 -4,-9 -2,-1 -7,0 -5,5 3,1 5,4 6,6 3,2 4,0 3,-2l0 0 0 0 0 0z"/>
  <path class="fil18" d="M602 336c0,-3 -2,-3 -5,-4 0,-3 0,-3 -2,-3 0,3 -1,3 0,4 0,3 2,4 5,4 0,3 4,0 2,-1l0 0 0 0z"/>
  <path class="fil18" d="M602 369c0,-3 -2,-3 -2,-5 -3,-2 -3,-4 -3,-4 -2,-4 -6,-2 -3,0 0,4 1,9 6,11 0,0 2,0 2,-2l0 0 0 0z"/>
  <path class="fil18" d="M580 366c-3,0 -5,-2 -5,-4 -2,-2 -6,-2 -4,0 0,4 2,7 6,9 3,0 3,-2 3,-5l0 0 0 0z"/>
  <path class="fil18" d="M612 403c0,-2 -2,-4 -2,-5 -2,-3 -4,0 -2,1 0,2 2,2 4,4 0,2 2,0 0,0l0 0 0 0z"/>
  <path class="fil18" d="M612 419c-2,-1 -6,-4 -8,-7 -2,-2 -4,2 -4,2 4,4 6,5 10,8 0,2 4,0 2,-3l0 0 0 0z"/>
  <path class="fil18" d="M629 354c0,-2 -3,-4 -4,-6 0,0 -2,-2 -4,0 0,0 0,2 0,4 2,0 4,2 5,4 0,2 4,0 3,-2l0 0 0 0z"/>
  <path class="fil18" d="M623 371c-2,-2 -5,-5 -7,-5 0,-2 -4,0 -2,3 2,2 4,3 7,3 0,3 2,0 2,-1l0 0z"/>
  <path class="fil18" d="M649 414c-2,-4 -4,-6 -6,-9 -5,-2 -6,0 -5,3 3,2 5,6 7,7 2,3 7,0 4,-1l0 0 0 0z"/>
  <path class="fil18" d="M633 391c-3,-2 -4,-5 -7,-6 0,0 -1,0 -1,0 0,1 0,1 0,4 0,0 1,2 1,2 3,2 3,2 4,2 0,2 3,0 3,-2l0 0z"/>
  <path class="fil18" d="M672 371c-3,-2 -4,-5 -6,-7 0,0 -2,0 -2,0 -2,2 -2,5 0,5 2,2 4,3 5,3 0,3 4,0 3,-1l0 0z"/>
  <path class="fil18" d="M649 375c-2,-3 -2,-4 -4,-4 -2,-2 -4,0 -2,1 0,3 2,3 4,4 0,3 5,0 2,-1z"/>
  <path class="fil18" d="M678 403c-2,-4 -5,-5 -9,-10 -1,-2 -3,2 -1,5 1,1 4,5 8,7 0,3 2,0 2,-2l0 0z"/>
  <path class="fil18" d="M638 438c-1,-1 -1,-1 -4,-4 -1,-1 -4,3 -1,3 1,1 1,3 4,3 1,2 4,0 1,-2z"/>
  <path class="fil18" d="M669 438c-1,-4 -3,-5 -5,-8 -2,-2 -5,3 -2,4 2,3 4,4 6,6 1,2 4,-2 1,-2l0 0 0 0z"/>
  <path class="fil18" d="M691 346c0,-5 -5,-6 -7,-10 0,-3 -4,0 -2,1 0,4 4,9 6,11 0,2 3,0 3,-2z"/>
  <path class="fil18" d="M698 379c0,-3 -2,-3 -2,-4 0,0 -1,-3 -1,-3 -3,-1 -4,0 -3,3 0,0 0,1 3,1 0,3 1,3 1,3 2,1 2,0 2,0l0 0 0 0z"/>
  <path class="fil18" d="M705 323c0,-2 -2,-2 -5,-4 0,-2 -4,2 -2,2 2,2 2,5 5,5 2,2 4,0 2,-3l0 0z"/>
  <path class="fil18" d="M730 352c-3,0 -3,-2 -4,-4 0,-2 -5,0 -3,2 3,4 3,6 4,8 3,0 4,0 4,-2 0,0 -1,-2 -1,-4l0 0 0 0 0 0z"/>
  <path class="fil18" d="M727 380c-1,-1 -4,-1 -4,-4 -2,-1 -6,3 -2,3 0,1 2,4 5,4 0,2 1,0 1,-3l0 0z"/>
  <path class="fil18" d="M705 414c-2,0 -2,-2 -2,-2 -3,-2 -3,-2 -3,-4 -2,-3 -5,0 -4,2 2,2 4,5 7,5 2,0 2,0 2,-1z"/>
  <path class="fil18" d="M712 360c-1,-2 -1,-4 -3,-6 -2,0 -4,0 -2,2 0,2 2,4 4,6 0,0 1,-2 1,-2z"/>
  <path class="fil18" d="M669 343c0,0 -1,-2 -1,-2 -2,-1 -4,0 -2,0 0,2 2,5 2,5 1,2 4,0 1,-3l0 0z"/>
  <path class="fil18" d="M723 326c-2,0 -2,-3 -4,-3 0,-2 -2,0 0,0 0,3 0,3 2,5 0,0 2,-2 2,-2l0 0 0 0z"/>
  <path class="fil18" d="M649 465c0,-2 -2,-4 -4,-4 0,-2 -4,0 -2,2 2,2 4,2 4,2 2,2 5,0 2,0l0 0 0 0z"/>
  <path class="fil18" d="M623 448c-2,-2 -2,-4 -5,-4 -2,-2 -4,0 -2,2 2,2 2,2 7,5 0,0 2,-3 0,-3l0 0z"/>
  <path class="fil18" d="M692 428c-1,-3 -4,-4 -6,-6 -2,-3 -6,2 -4,3 2,3 4,5 9,8 1,0 1,-3 1,-5l0 0 0 0z"/>
  <path class="fil3" d="M939 369c-35,-29 -76,-46 -111,-72 -2,-3 -2,-3 -5,-3 0,-1 -2,-4 -3,-4 -17,4 -27,38 -33,50 -18,40 -31,97 -17,140 12,35 42,61 79,44 30,-12 30,-43 30,-71 15,15 31,37 54,34 28,0 47,-15 49,-45 4,-30 -22,-57 -43,-73l0 0 0 0z"/>
  <path class="fil4" d="M950 375c-33,-27 -76,-46 -112,-73 0,0 -2,-2 -4,-2 0,-2 -2,-3 -4,-2 -17,4 -27,35 -33,50 -19,38 -31,96 -15,139 13,36 39,60 77,46 31,-14 31,-46 31,-74 14,17 31,37 53,37 29,-2 48,-19 50,-48 3,-29 -23,-55 -43,-73l0 0 0 0z"/>
  <path class="fil18" d="M812 354c0,-2 0,-6 0,-8 0,-3 0,-3 -3,-3 -1,0 -6,0 -8,3 0,0 -2,0 -2,2 0,6 4,12 9,14 0,2 1,0 1,0 3,-2 3,-6 3,-8l0 0 0 0z"/>
  <path class="fil18" d="M826 317c0,-2 0,-6 0,-8 0,-2 0,-2 -3,-2 -2,0 -6,0 -7,2 0,0 -3,0 -3,2 0,6 4,12 8,15 0,2 2,0 2,0 3,-5 3,-7 3,-9l0 0 0 0 0 0z"/>
  <path class="fil18" d="M859 337c0,-1 2,-4 0,-8 0,0 0,-1 -3,-1 -1,0 -5,1 -7,1 0,0 -2,0 -2,3 0,5 4,11 8,16 1,0 1,0 4,-2 0,-3 0,-5 0,-9l0 0 0 0 0 0z"/>
  <path class="fil18" d="M799 385c0,-5 0,-6 0,-9 0,-1 0,-1 -2,-1 -2,0 -6,0 -8,1 0,0 -2,0 -2,0 0,7 4,13 8,17 2,2 2,0 4,-2 0,-2 0,-5 0,-6l0 0z"/>
  <path class="fil18" d="M791 428c0,-3 0,-6 0,-9 0,-1 -2,-1 -2,-1 -4,0 -7,0 -9,1 0,0 -3,0 -3,3 0,6 5,12 10,16 0,0 2,-1 2,-1 2,-3 2,-7 2,-9l0 0 0 0 0 0z"/>
  <path class="fil18" d="M836 408c0,-3 2,-7 2,-9 -2,-1 -2,-1 -4,-1 -2,0 -6,0 -8,1 0,0 -3,0 -3,2 0,7 5,13 9,14 2,3 4,0 4,0 0,-1 0,-5 0,-7l0 0 0 0z"/>
  <path class="fil18" d="M881 389c2,-3 2,-4 2,-9 0,0 -2,-1 -4,-1 -1,1 -4,1 -8,1 0,0 -2,3 -2,3 0,6 5,12 9,16 1,0 3,0 3,-1 0,-3 0,-5 0,-9l0 0 0 0 0 0z"/>
  <path class="fil18" d="M826 440c0,-2 0,-6 0,-7 0,0 0,-3 -3,-3 -2,0 -6,0 -7,3 0,0 -3,0 -3,1 0,6 4,12 8,17 0,0 2,0 2,-3 3,-2 3,-6 3,-8l0 0 0 0 0 0z"/>
  <path class="fil18" d="M871 425c0,-1 0,-3 0,-7 0,0 -2,-3 -2,-3 -4,3 -6,3 -8,3 0,0 -5,0 -5,1 3,7 7,14 11,18 0,0 2,0 2,-3 2,-1 2,-4 2,-8l0 -1 0 0 0 0z"/>
  <path class="fil18" d="M852 459c0,-2 0,-5 0,-8 0,0 -1,-3 -1,-3 -4,3 -7,3 -9,3 -2,0 -4,2 -4,2 0,6 4,12 9,15 2,0 4,0 4,-1 0,-2 1,-4 1,-8l0 0z"/>
  <path class="fil18" d="M834 494c0,-4 0,-7 0,-9 0,-2 -2,-2 -2,-2 -4,0 -6,0 -9,2 0,0 -3,0 -3,0 0,7 6,13 10,17 0,2 2,0 2,-2 0,-2 2,-4 2,-6l0 0 0 0z"/>
  <path class="fil18" d="M929 457c0,-3 2,-6 2,-9 0,-2 -2,-2 -5,-2 -2,0 -4,0 -8,2 0,0 -1,0 -1,3 0,6 4,12 7,14 2,2 5,0 5,0 0,-4 0,-6 0,-8l0 0 0 0 0 0z"/>
  <path class="fil18" d="M797 476c0,-4 0,-8 0,-9 0,-2 -2,-2 -2,-2 -4,0 -6,0 -8,2 0,0 -5,0 -5,0 0,6 7,13 11,16 0,2 2,0 2,-2 0,-1 2,-4 2,-5l0 0z"/>
  <path class="fil18" d="M908 424c0,-5 2,-6 0,-9 0,-1 0,-1 -2,-1 -2,0 -6,0 -8,0 0,1 -3,1 -3,1 0,7 5,13 9,18 2,1 2,0 4,-3 0,-2 0,-5 0,-6l0 0z"/>
  <path class="fil18" d="M943 410c0,-2 0,-5 0,-9 0,0 -2,-2 -2,-2 -4,2 -6,2 -10,2 0,0 -2,2 -2,2 0,7 4,12 8,16 2,0 4,0 4,-1 0,-3 0,-4 2,-8l0 0 0 0 0 0z"/>
  <path class="fil18" d="M972 442c2,-2 2,-4 2,-8 0,0 -2,-1 -4,-1 -3,1 -5,1 -9,1 0,0 -1,0 -1,3 0,5 4,11 7,16 3,0 5,0 5,-2 0,-3 0,-5 0,-9l0 0 0 0 0 0z"/>
  <path class="fil18" d="M921 383c0,-4 0,-7 0,-11 0,0 0,0 -3,0 -1,0 -5,0 -8,0 0,0 -2,3 -2,3 0,5 5,11 9,16 0,2 1,0 1,-2 3,-3 3,-4 3,-6z"/>
  <path class="fil18" d="M836 372c0,-1 2,-6 0,-8 0,0 0,-2 -2,-2 -2,0 -6,0 -8,2 0,0 -3,0 -3,2 0,6 5,13 9,17 2,0 2,0 4,-3 0,-1 0,-5 0,-8l0 0 0 0 0 0z"/>
  <path class="fil18" d="M888 354c0,-2 0,-6 0,-8 0,-3 -3,-3 -3,-3 -4,0 -6,0 -10,3 0,0 -1,0 -1,2 0,6 4,12 7,16 2,0 4,0 4,-2 0,-2 0,-6 3,-8l0 0 0 0z"/>
  <path class="fil3" d="M960 915c-27,-26 -60,-47 -89,-73 0,-2 -2,-2 -2,-2 0,-3 -2,-5 -4,-5 -14,2 -27,29 -33,39 -20,33 -39,80 -31,120 8,31 29,55 62,46 29,-7 32,-34 35,-59 10,16 23,35 43,37 24,4 41,-10 47,-32 7,-28 -12,-53 -28,-71l0 0 0 0z"/>
  <path class="fil4" d="M970 922c-27,-29 -62,-50 -89,-76 0,0 -2,-3 -2,-3 -1,-1 -1,-1 -4,-1 -14,0 -26,26 -33,39 -21,31 -39,79 -30,116 8,33 28,58 62,48 28,-7 30,-33 34,-59 10,15 23,36 44,39 24,1 41,-11 47,-35 5,-25 -15,-52 -29,-68l0 0 0 0 0 0z"/>
  <path class="fil18" d="M852 894c3,-1 3,-5 3,-8 0,0 0,-1 -3,-1 -1,0 -3,0 -8,0 0,1 -2,1 -2,1 0,4 2,11 7,15 0,2 2,0 2,0 1,-3 1,-4 1,-7l0 0z"/>
  <path class="fil18" d="M871 864c0,-2 0,-4 0,-9 0,0 0,0 -2,0 -2,-1 -4,-1 -6,0 0,0 -4,0 -4,0 0,7 4,13 6,15 2,2 2,2 4,0 0,-2 0,-4 2,-6l0 0z"/>
  <path class="fil18" d="M895 886c3,-1 3,-5 3,-8 0,0 0,-2 -3,-2 -1,0 -3,0 -7,2 0,0 -3,0 -3,0 0,7 3,11 7,15 0,1 2,0 2,0 1,-3 1,-4 1,-7l0 0 0 0 0 0z"/>
  <path class="fil18" d="M840 919c0,-4 0,-6 0,-7 0,0 0,-3 -2,-3 -2,0 -4,0 -6,0 0,0 -4,0 -4,3 0,3 4,10 6,14 2,2 2,0 4,0 0,-2 0,-4 2,-7l0 0 0 0z"/>
  <path class="fil18" d="M826 954c2,-2 2,-3 2,-6 0,-2 -2,-2 -2,-2 -3,0 -5,0 -9,0 0,0 -1,0 -1,2 0,4 1,10 5,15 0,2 2,0 2,0 3,-3 3,-5 3,-9l0 0 0 0z"/>
  <path class="fil18" d="M869 942c0,-2 2,-4 2,-6 0,-3 -2,-3 -2,-3 -4,0 -6,0 -8,0 0,0 -2,0 -2,3 0,4 2,10 4,15 2,1 4,0 4,0 0,-3 2,-5 2,-9l0 0 0 0z"/>
  <path class="fil18" d="M910 933c0,-1 3,-5 3,-7 0,0 -3,-2 -3,-2 -4,0 -6,0 -8,2 0,0 -2,0 -2,0 0,6 2,10 6,14 0,2 2,0 2,0 0,-2 2,-4 2,-7l0 0 0 0z"/>
  <path class="fil18" d="M855 971c1,-3 1,-6 1,-8 0,0 0,-3 -1,-3 -3,0 -4,0 -8,3 0,0 -3,0 -3,0 0,5 3,10 7,14 0,2 1,0 1,0 3,-2 3,-4 3,-6l0 0 0 0 0 0z"/>
  <path class="fil18" d="M895 963c0,-3 3,-5 3,-7 0,-2 -3,-2 -3,-2 -1,0 -5,0 -7,0 0,0 -3,0 -3,2 0,4 3,11 7,15 0,2 2,0 2,0 1,-3 1,-4 1,-8l0 0 0 0z"/>
  <path class="fil18" d="M875 990c0,-3 3,-4 3,-7 0,-2 -3,-2 -3,-2 -1,0 -6,0 -8,0 0,0 -2,0 -2,2 0,4 2,11 6,14 0,0 3,0 3,-2 1,-1 1,-4 1,-5l0 0 0 0 0 0z"/>
  <path class="fil18" d="M856 1016c0,-2 0,-4 0,-6 0,-2 0,-2 -1,-2 -3,0 -4,0 -6,0 0,0 -5,0 -5,2 0,4 5,10 7,15 1,0 1,0 4,-3 0,-2 0,-4 1,-6l0 0 0 0 0 0z"/>
  <path class="fil18" d="M943 995c0,-1 2,-4 2,-5 0,-3 -2,-3 -2,-3 -4,0 -6,0 -8,0 0,0 -2,0 -2,3 -2,4 2,9 4,14 2,2 4,0 4,0 0,-3 2,-5 2,-9l0 0 0 0z"/>
  <path class="fil18" d="M826 995c0,-1 2,-4 2,-5 0,-3 -2,-3 -2,-3 -3,0 -6,0 -9,0 0,0 -1,0 -1,3 0,4 1,9 5,14 0,0 2,0 2,-3 3,-2 3,-4 3,-6l0 0 0 0z"/>
  <path class="fil18" d="M929 965c0,-2 2,-5 2,-7 0,-2 -2,-2 -2,-2 -3,0 -7,0 -8,0 0,0 -3,0 -3,2 0,5 3,10 6,15 0,0 2,0 2,-2 0,-3 3,-4 3,-6l0 0 0 0z"/>
  <path class="fil18" d="M960 958c0,-2 0,-6 0,-7 0,0 0,-3 0,-3 -4,0 -7,0 -8,3 0,0 -2,0 -2,0 -3,5 2,9 3,14 3,2 4,0 4,0 0,-2 3,-5 3,-7l0 0 0 0 0 0z"/>
  <path class="fil18" d="M982 990c0,-3 0,-4 0,-7 0,-2 0,-2 0,-2 -4,0 -6,0 -8,0 0,0 -2,0 -2,2 -2,4 2,11 4,14 2,0 4,0 4,-2 0,-1 2,-4 2,-5l0 0 0 0 0 0z"/>
  <path class="fil18" d="M943 932c2,-4 2,-6 2,-8 0,0 0,-2 -2,-2 -2,0 -4,0 -6,0 -2,0 -4,0 -4,2 0,4 2,9 6,14 0,2 2,0 2,0 2,-2 2,-5 2,-6l0 0 0 0z"/>
  <path class="fil18" d="M874 913c0,-1 0,-4 0,-8 0,0 0,0 -3,0 -2,-2 -4,-2 -6,0 0,0 -2,0 -2,0 -2,7 2,12 4,14 2,3 4,3 4,0 0,-2 3,-4 3,-6l0 0 0 0z"/>
  <path class="fil18" d="M918 903c0,-2 0,-5 0,-6 0,-3 0,-3 0,-3 -4,0 -5,-1 -8,0 0,0 -2,0 -2,0 -2,7 2,13 5,18 1,0 4,0 4,-3 0,-2 1,-4 1,-6l0 0 0 0 0 0z"/>
  <path class="fil18" d="M1662 563c0,3 0,5 0,6 0,0 0,0 3,0 2,0 4,0 4,-1 2,0 2,0 2,0 0,-5 -4,-9 -6,-10 -3,-3 -3,0 -3,0 0,1 0,4 0,5l0 0z"/>
  <path class="fil18" d="M1654 590c0,3 0,5 0,7 0,0 3,0 3,0 1,0 4,0 5,-2 0,0 3,0 3,0 0,-5 -4,-9 -8,-11 0,-2 -3,0 -3,0 0,2 0,4 0,6l0 0 0 0 0 0z"/>
  <path class="fil18" d="M1630 578c0,3 0,4 0,6 0,0 2,0 2,0 2,0 4,0 6,-2 0,0 2,0 2,0 -2,-4 -4,-8 -8,-10 0,-3 -2,0 -2,0 0,2 0,4 0,6l0 0 0 0z"/>
  <path class="fil18" d="M1669 541c0,2 0,4 0,6 0,0 0,2 2,2 2,-2 4,-2 4,-2 0,0 2,-2 2,-2 0,-4 -4,-8 -6,-10 -2,0 -2,0 -2,2 0,0 0,2 0,4l0 0z"/>
  <path class="fil18" d="M1671 511c0,1 0,4 0,5 0,0 2,0 2,0 2,0 4,0 6,-1 0,0 2,0 2,0 -2,-4 -4,-9 -8,-11 0,-2 -2,0 -2,0 0,2 0,4 0,7l0 0 0 0z"/>
  <path class="fil18" d="M1640 528c0,2 0,5 0,7 0,0 2,0 2,0 2,0 5,0 7,-2 0,0 2,0 2,-3 -2,-2 -4,-6 -9,-10 0,0 -2,3 -2,3 0,1 0,3 0,5l0 0 0 0z"/>
  <path class="fil18" d="M1610 543c0,2 0,4 1,6 0,3 0,3 0,3 3,0 4,-3 7,-3 0,0 1,0 1,-2 0,-4 -4,-8 -5,-10 -3,0 -3,0 -4,2 0,2 0,4 0,4l0 0 0 0 0 0z"/>
  <path class="fil18" d="M1647 504c0,2 -3,4 0,7 0,0 0,1 2,0 2,0 4,0 4,0 0,0 1,-3 1,-3 0,-4 -3,-8 -5,-10 -2,0 -2,0 -2,0 0,2 -3,4 0,6l0 0z"/>
  <path class="fil18" d="M1615 519c0,0 0,1 0,4 0,1 3,1 3,1 1,0 4,0 5,-1 0,0 2,0 2,-3 -2,-4 -3,-8 -7,-9 0,0 -3,0 -3,1 0,3 0,4 0,7l0 0 0 0z"/>
  <path class="fil18" d="M1625 494c0,2 0,4 0,4 0,2 3,2 3,2 2,0 4,0 6,-2 0,0 2,0 2,-2 -2,-4 -4,-6 -8,-11 0,0 -3,2 -3,2 0,3 0,5 0,7l0 0 0 0z"/>
  <path class="fil18" d="M1636 468c0,4 0,5 0,8 0,0 2,0 2,0 2,0 4,0 6,-3 0,0 3,0 3,-1 -3,-4 -5,-7 -9,-11 0,0 -2,2 -2,2 0,2 0,4 0,5l0 0 0 0z"/>
  <path class="fil18" d="M1572 502c0,0 0,2 0,4 0,2 3,2 3,2 1,0 4,0 5,-2 0,0 2,0 2,-2 -2,-4 -3,-8 -7,-10 0,0 -3,0 -3,2 0,2 0,4 0,6l0 0 0 0z"/>
  <path class="fil18" d="M1662 480c0,0 0,1 0,3 0,2 3,2 3,2 2,0 4,0 6,-2 0,0 2,0 2,-2 0,-4 -4,-8 -8,-9 0,0 -3,0 -3,1 0,3 0,4 0,7l0 0z"/>
  <path class="fil18" d="M1589 523c0,1 0,3 0,5 2,0 2,2 2,2 2,-2 4,-2 5,-2 0,0 3,-2 3,-2 0,-3 -4,-7 -6,-10 -2,0 -4,0 -4,3 0,0 0,1 0,4l0 0 0 0 0 0z"/>
  <path class="fil18" d="M1566 535c0,2 0,4 2,6 0,0 0,0 2,0 0,0 2,0 5,-2 0,0 1,0 1,-2 0,-2 -4,-7 -6,-11 -2,0 -2,2 -2,2 -2,2 -2,5 -2,7l0 0 0 0z"/>
  <path class="fil18" d="M1543 515c0,1 0,4 0,5 0,0 3,0 3,0 2,0 4,0 6,-1 0,0 1,0 1,0 -1,-4 -3,-8 -7,-11 0,-2 -3,0 -3,0 0,3 0,4 0,7l0 0 0 0z"/>
  <path class="fil18" d="M1585 554c0,0 0,1 0,4 0,1 0,1 2,1 2,0 4,0 6,-1 0,0 2,0 0,-3 0,-3 -2,-8 -6,-10 0,0 -2,0 -2,2 0,2 0,5 0,7l0 0z"/>
  <path class="fil18" d="M1642 552c0,2 0,3 2,6 0,1 0,1 3,1 0,0 2,-1 4,-1 0,0 2,0 2,-3 0,-3 -4,-8 -6,-10 -3,0 -3,0 -3,2 -2,2 -2,5 -2,5l0 0 0 0z"/>
  <path class="fil18" d="M1610 569c0,0 0,3 0,5 1,2 1,2 1,2 3,0 4,0 7,-2 0,0 1,0 1,-2 0,-4 -4,-9 -8,-10 0,0 -1,0 -1,1 0,3 0,5 0,6l0 0 0 0 0 0z"/>
  <path class="fil19" d="M1443 967c-31,12 -56,-11 -64,-31 -9,20 -31,43 -62,31 -33,-13 -38,-52 -26,-84 12,-33 88,-95 88,-95 0,0 78,62 91,95 11,32 5,71 -27,84l0 0 0 0z"/>
  <path class="fil20" d="M1453 973c-31,10 -54,-13 -61,-31 -9,18 -33,41 -65,31 -33,-13 -39,-54 -26,-87 12,-32 91,-94 91,-94 0,0 75,62 87,94 13,33 7,74 -26,87z"/>
  <path class="fil18" d="M1326 901c-3,2 -4,2 -6,2 -3,0 -7,-2 -9,-5 -2,-1 -6,-1 -10,0 -2,0 0,5 2,5 6,-2 8,2 12,4 5,0 11,2 12,-2 3,-2 0,-4 -1,-4l0 0z"/>
  <path class="fil18" d="M1356 883c-2,0 -4,2 -8,2 -2,0 -4,-2 -8,-4 -3,-3 -6,-3 -10,0 -3,0 0,4 1,4 6,-2 9,1 13,4 6,0 10,1 12,-3 3,-1 3,-3 0,-3l0 0 0 0 0 0z"/>
  <path class="fil18" d="M1346 855c-4,2 -6,2 -9,2 -2,0 -6,-2 -7,-3 -3,-3 -7,-3 -10,0 -3,0 0,3 2,3 5,-2 8,3 12,5 3,0 10,2 12,-2 2,-3 0,-5 0,-5l0 0 0 0 0 0z"/>
  <path class="fil18" d="M1383 814c-4,0 -6,0 -9,0 -1,2 -4,-2 -8,-2 -1,-1 -5,-1 -10,-1 -2,1 0,3 3,3 6,-2 7,2 11,5 7,2 11,2 13,-3 2,0 2,-2 0,-2l0 0 0 0 0 0z"/>
  <path class="fil18" d="M1379 846c-2,0 -5,1 -6,1 -3,0 -7,-1 -8,-4 -2,-1 -6,-1 -11,0 -2,0 -2,4 2,4 5,-1 9,3 13,4 4,0 8,0 12,-1 2,-3 0,-4 -2,-4l0 0z"/>
  <path class="fil18" d="M1418 833c-4,0 -6,0 -9,2 -1,0 -5,-4 -7,-4 -3,-2 -7,-2 -10,-2 -3,2 0,4 1,4 6,-2 9,2 13,4 3,3 10,3 12,-2 3,0 0,-2 0,-2l0 0 0 0 0 0z"/>
  <path class="fil18" d="M1431 854c-3,0 -4,1 -7,1 -3,0 -6,-1 -8,-4 -4,-1 -7,-1 -10,0 -2,0 -2,4 0,3 6,0 8,3 15,6 3,0 7,0 11,-3 0,-2 0,-3 -1,-3l0 0 0 0z"/>
  <path class="fil18" d="M1406 878c-2,0 -4,0 -7,3 -2,0 -6,-5 -7,-5 -5,-2 -7,-2 -11,-2 -2,2 -2,4 2,4 4,-2 9,3 12,5 4,2 9,2 13,-2 0,0 0,-3 -2,-3l0 0 0 0z"/>
  <path class="fil18" d="M1457 890c-2,0 -4,3 -6,3 -4,0 -6,-3 -8,-4 -5,-3 -8,-3 -11,0 -4,0 -1,4 0,4 6,-3 9,1 15,4 4,0 8,0 12,-3 0,-1 0,-4 -2,-4z"/>
  <path class="fil18" d="M1397 905c-2,0 -4,0 -5,0 -3,2 -7,-2 -9,-2 -2,-2 -6,-2 -10,-2 -3,2 -3,4 1,4 7,-2 9,2 13,4 5,3 8,3 12,-2 3,0 0,-2 -2,-2l0 0 0 0z"/>
  <path class="fil18" d="M1451 917c-2,0 -4,2 -6,2 -2,0 -7,-2 -9,-4 -4,-2 -5,-2 -9,0 -3,0 -3,4 1,4 4,-2 8,3 13,5 4,0 8,0 12,-2 0,-3 0,-5 -2,-5l0 0z"/>
  <path class="fil18" d="M1369 926c-3,0 -4,2 -6,2 -2,0 -7,-2 -9,-4 -4,-2 -6,-2 -10,0 -2,0 -2,4 0,2 6,0 10,3 15,3 4,3 7,3 11,0 0,-1 0,-3 -1,-3l0 0 0 0z"/>
  <path class="fil18" d="M1441 944c-3,0 -5,2 -6,2 -4,0 -7,-2 -8,-4 -5,-2 -6,-2 -11,0 -2,0 -2,4 0,4 6,-2 8,2 15,5 4,0 7,0 12,-3 0,-2 0,-4 -2,-4z"/>
  <path class="fil18" d="M1326 940c-3,0 -4,0 -6,0 -3,0 -7,-2 -9,-2 -2,-2 -6,-5 -10,-2 -2,0 0,4 2,4 6,-2 8,2 12,4 5,2 11,2 12,-2 3,0 0,-4 -1,-2l0 0 0 0z"/>
  <path class="fil5" d="M1283 677c-25,19 -52,69 -6,78 22,1 46,-14 63,-29 25,-20 53,-43 76,-67 0,-3 0,-7 0,-9 0,0 -2,-2 -2,-4 -41,-35 -101,-72 -154,-48 -19,9 -19,29 -15,46 4,16 21,26 38,33l0 0 0 0 0 0z"/>
  <path class="fil6" d="M1292 683c-22,19 -48,70 -4,78 23,3 47,-15 64,-29 25,-21 54,-43 75,-68 1,-4 1,-5 1,-8 0,-1 -1,-1 -4,-4 -39,-35 -98,-74 -152,-47 -19,7 -21,29 -14,45 4,17 21,27 34,33l0 0 0 0 0 0z"/>
  <path class="fil18" d="M1303 693c0,0 0,0 -2,0 -2,-2 -5,3 -5,5 0,1 3,4 5,4 2,0 2,0 2,-3 4,0 4,-3 0,-6l0 0z"/>
  <path class="fil18" d="M1303 609c-9,0 -9,11 0,11 4,0 4,-11 0,-11z"/>
  <path class="fil18" d="M1337 640c-6,0 -6,6 0,6 3,0 3,-6 0,-6z"/>
  <path class="fil18" d="M1309 660c-2,0 -2,4 0,4 6,0 6,-4 0,-4z"/>
  <path class="fil18" d="M1352 679c-2,0 -2,6 0,6 4,0 4,-6 0,-6z"/>
  <path class="fil18" d="M1284 646c-4,0 -4,4 0,4 3,0 3,-4 0,-4z"/>
  <path class="fil18" d="M1379 668c-2,0 -2,6 0,6 6,0 6,-6 0,-6z"/>
  <path class="fil18" d="M1354 620c-4,0 -4,5 0,5 2,0 2,-5 0,-5z"/>
  <path class="fil18" d="M1268 612c0,0 -2,0 -2,0 -2,0 -2,5 0,5 0,0 2,0 2,0 2,0 2,-5 0,-5z"/>
  <path class="fil18" d="M1385 642c-4,0 -4,6 0,6 7,0 7,-6 0,-6z"/>
  <path class="fil18" d="M1280 728c-1,-2 -3,-2 -3,0 0,0 -3,2 -3,2 0,2 3,4 5,4 0,0 1,-2 1,-2 3,-2 0,-4 0,-4l0 0z"/>
  <path class="fil18" d="M1334 703c-3,0 -3,8 0,8 3,0 3,-8 0,-8z"/>
  <path class="fil5" d="M974 885c4,20 19,30 41,28 14,-1 24,-19 35,-30 2,20 4,43 29,49 26,8 45,-15 51,-39 7,-33 -8,-74 -25,-101 -5,-8 -16,-31 -28,-33 -2,0 -2,2 -2,5 -2,0 -2,0 -5,0 -22,24 -48,40 -71,63 -15,15 -32,37 -25,58l0 0z"/>
  <path class="fil6" d="M984 889c4,20 19,30 39,28 16,-2 27,-19 38,-31 1,21 4,43 28,50 27,8 46,-12 51,-39 7,-33 -8,-72 -24,-99 -7,-10 -16,-33 -29,-33 -2,0 -2,0 -2,3 -2,0 -2,0 -4,1 -23,23 -52,39 -72,62 -14,15 -31,37 -25,58l0 0z"/>
  <path class="fil18" d="M1108 874c-8,-14 -8,-31 -14,-47 0,-2 -5,0 -5,2 2,17 7,33 12,47 3,5 8,2 7,-2l0 0z"/>
  <path class="fil18" d="M1066 840c-1,2 -1,6 -1,7 -3,3 1,4 3,3 0,-4 0,-7 2,-8 0,-5 -2,-7 -4,-2l0 0 0 0z"/>
  <path class="fil18" d="M1038 825c-4,4 -6,8 -13,10 -2,2 0,7 4,5 5,-3 9,-7 13,-13 0,-2 -3,-4 -4,-2l0 0z"/>
  <path class="fil21" d="M986 177c-25,-12 -45,7 -53,22 -7,-15 -25,-36 -52,-28 -29,8 -34,41 -26,70 8,29 69,85 69,85 0,0 69,-48 80,-76 13,-28 11,-61 -18,-73l0 0 0 0z"/>
  <path class="fil22" d="M999 184c-25,-13 -46,5 -54,22 -6,-17 -24,-37 -51,-29 -29,8 -35,43 -27,70 11,29 72,85 72,85 0,0 65,-48 78,-77 12,-27 10,-59 -18,-71l0 0z"/>
  <path class="fil18" d="M902 259c-4,-12 -10,-20 -12,-32 -2,-2 -9,-2 -7,1 5,13 9,23 15,33 2,3 6,0 4,-2l0 0z"/>
  <path class="fil18" d="M929 237c0,-5 -7,-5 -7,0 0,5 0,13 2,17 2,1 5,1 5,0 0,-7 0,-12 0,-17l0 0z"/>
  <path class="fil18" d="M982 235c-2,10 -6,22 -17,29 -1,2 0,6 2,4 11,-9 17,-18 19,-31 0,-2 -2,-5 -4,-2l0 0 0 0z"/>
  <path class="fil3" d="M1322 1162c-11,-23 -34,-31 -54,-23 -19,6 -24,34 -29,50 -10,-12 -33,-15 -48,-16 -26,-3 -48,8 -54,37 -5,28 15,57 32,77 17,16 36,31 50,50 12,12 22,24 36,34 5,5 9,3 13,0 2,0 4,-2 4,-3 31,-62 84,-138 50,-206l0 0 0 0 0 0z"/>
  <path class="fil4" d="M1334 1168c-11,-23 -33,-30 -54,-25 -18,7 -25,35 -29,52 -10,-13 -32,-14 -46,-17 -27,-1 -50,8 -57,38 -4,28 17,57 34,78 14,16 35,31 49,49 13,13 22,25 37,35 4,4 9,2 12,0 3,0 4,-2 4,-7 31,-59 85,-135 50,-203l0 0 0 0z"/>
  <path class="fil18" d="M1272 1255c-10,8 -23,16 -33,24 -6,-6 -10,-12 -16,-19 8,-5 15,-12 22,-16 3,-2 0,-4 -1,-4 -9,4 -18,11 -23,16 -4,-3 -9,-8 -11,-12 4,-2 9,-6 13,-10 2,0 0,-4 -2,-2 -7,2 -11,6 -15,8 -6,-6 -10,-10 -16,-16 -3,-3 -7,1 -4,3 5,5 10,11 16,17 -4,2 -7,4 -12,9 -4,-7 -10,-13 -12,-19 -2,-2 -7,0 -5,4 3,6 9,13 13,17 -4,1 -6,5 -10,8 -5,1 0,6 2,4 4,-3 8,-7 12,-8 5,4 8,8 12,12 -4,2 -7,6 -15,8 -1,3 0,6 4,4 5,-1 9,-6 15,-10 4,6 11,12 15,19 -7,4 -11,6 -16,10 -5,0 -3,6 1,4 6,-3 13,-7 19,-10 8,10 16,18 24,29 2,1 6,0 4,-3 -8,-10 -15,-20 -24,-28 4,-2 6,-5 9,-7 10,11 17,21 28,31 2,3 4,0 4,-1 -10,-11 -19,-23 -26,-34 9,-8 20,-16 33,-24 0,-3 -3,-4 -5,-4l0 0zm-77 1l0 0c3,-3 7,-5 10,-8 4,5 7,8 9,12 -2,3 -5,4 -8,7 -4,-4 -8,-8 -11,-11l0 0 0 0zm31 31l0 0c-3,-4 -7,-8 -12,-12 -2,-2 -4,-2 -4,-4 2,-2 7,-4 9,-7 4,7 10,13 14,19 -2,2 -4,4 -7,4l0 0 0 0z"/>
  <path class="fil21" d="M1763 237c28,-9 45,10 52,24 6,-14 25,-33 51,-24 27,10 31,43 21,70 -10,26 -72,76 -72,76 0,0 -62,-50 -72,-76 -10,-27 -6,-60 20,-70z"/>
  <path class="fil22" d="M1776 245c26,-10 45,9 51,25 7,-16 27,-35 52,-25 27,10 30,41 20,68 -11,27 -72,76 -72,76 0,0 -62,-49 -72,-76 -10,-27 -3,-58 21,-68z"/>
  <path class="fil18" d="M1819 337c0,-1 -4,-1 -4,0 0,0 0,3 0,3 0,1 0,3 2,3 2,0 4,-2 4,-3 -2,0 -2,-3 -2,-3z"/>
  <path class="fil18" d="M1829 304c-6,0 -6,11 0,11 7,0 7,-11 0,-11z"/>
  <path class="fil18" d="M1864 276c-4,0 -4,13 0,13 9,0 9,-13 0,-13z"/>
  <path class="fil18" d="M1870 311c-6,0 -6,6 0,6 3,0 3,-6 0,-6z"/>
  <path class="fil18" d="M1779 271c-1,-1 -3,-1 -5,-1 0,0 0,0 0,0 -2,1 -2,4 -2,6 2,0 2,2 2,2 2,0 4,0 5,-2 0,-2 0,-5 0,-5z"/>
  <path class="fil18" d="M1788 309c-6,0 -6,4 0,4 3,0 3,-4 0,-4z"/>
  <path class="fil18" d="M1802 278c0,0 -1,0 -1,0 -3,0 -4,2 -4,4 -3,4 1,8 5,8 3,0 6,-4 6,-6 0,-2 -2,-6 -6,-6l0 0z"/>
  <path class="fil18" d="M1769 293c-2,0 -2,4 0,4 3,0 3,-4 0,-4z"/>
  <path class="fil18" d="M1797 337c-5,0 -5,9 0,9 5,0 5,-9 0,-9z"/>
  <path class="fil18" d="M1844 268c-4,0 -4,8 0,8 5,0 5,-8 0,-8z"/>
  <path class="fil18" d="M1875 254c0,-3 -2,-4 -5,-4 -2,1 -4,4 -4,5 0,2 2,4 4,4 5,0 7,-4 5,-5z"/>
  <path class="fil18" d="M1845 333c-1,0 -4,0 -1,3 0,1 0,1 0,1 0,3 4,3 4,0 0,0 0,0 0,-1 1,-3 0,-3 -3,-3l0 0 0 0z"/>
  <path class="fil18" d="M1788 250c-6,0 -6,5 0,5 3,0 3,-5 0,-5z"/>
  <path class="fil18" d="M1759 259c0,0 0,0 0,0 -1,-2 -1,-2 -4,-2 0,0 0,0 0,0 -3,2 -3,7 0,7 0,0 0,0 0,0 3,0 3,0 4,-3 0,0 0,0 0,0 0,0 0,-2 0,-2l0 0 0 0z"/>
  <path class="fil18" d="M1758 286c-3,0 -3,-2 -5,-2 -4,2 -4,6 0,6 2,0 2,0 5,0 0,0 0,-4 0,-4z"/>
  <path class="fil18" d="M1769 317c-2,0 -2,6 0,6 3,0 3,-6 0,-6z"/>
  <path class="fil3" d="M1484 185c-13,-10 -29,-25 -46,-18 -14,4 -20,15 -16,29 2,16 14,29 25,39 12,15 60,54 71,49 7,-4 32,-82 28,-113 -5,-41 -62,-39 -62,14l0 0z"/>
  <path class="fil4" d="M1494 189c-13,-10 -28,-24 -45,-18 -14,4 -21,14 -18,31 4,14 16,29 26,39 13,13 60,52 70,48 8,-3 30,-83 29,-112 -6,-41 -62,-39 -62,12l0 0 0 0z"/>
  <path class="fil18" d="M1513 184c-3,-2 -4,-2 -4,0 -2,4 0,8 -2,12 0,6 -13,1 -17,3 -6,0 -12,5 -16,11 -3,2 1,4 1,2 4,-4 11,-10 17,-10 4,0 11,2 15,0 7,0 7,-14 6,-18l0 0 0 0z"/>
  <path class="fil18" d="M1521 197c0,-1 -4,0 -4,2 0,3 0,7 0,9 0,4 -7,8 -10,10 -7,4 -15,7 -21,10 -2,3 0,4 2,4 8,-5 19,-10 29,-16 6,-4 6,-10 4,-19l0 0z"/>
  <path class="fil5" d="M1225 1049c-23,19 -47,70 -4,76 23,2 45,-14 62,-27 24,-22 51,-43 71,-68 2,-1 2,-4 2,-5 0,-3 -2,-5 -4,-5 -39,-33 -94,-72 -147,-47 -18,8 -19,28 -15,45 6,15 20,24 35,31l0 0 0 0z"/>
  <path class="fil6" d="M1238 1055c-24,18 -51,68 -5,76 20,3 46,-15 61,-29 23,-21 52,-41 72,-65 3,-3 3,-4 0,-7 0,-1 0,-4 -1,-4 -39,-35 -97,-72 -148,-47 -19,8 -19,29 -15,46 4,13 21,24 35,30l1 0 0 0z"/>
  <path class="fil23" d="M1253 999c0,-2 -4,0 -4,2 9,24 15,52 2,72 -2,3 0,4 2,3 13,-23 9,-54 0,-77l0 0 0 0z"/>
  <path class="fil23" d="M1279 1010c0,-2 -5,-2 -5,0 5,20 9,43 -2,62 -2,1 0,1 0,1 12,-18 11,-43 7,-63l0 0z"/>
  <path class="fil23" d="M1294 1016c0,-2 -3,-2 -3,0 0,17 1,31 -3,47 -1,3 3,3 3,0 5,-14 5,-30 3,-47z"/>
  <path class="fil23" d="M1313 1018c0,-2 -4,-2 -4,0 0,11 2,20 0,31 0,2 4,4 4,0 2,-11 2,-20 0,-31z"/>
  <path class="fil23" d="M1330 1026c0,0 -4,0 -4,0 0,4 0,7 0,11 0,1 4,1 4,0 0,-4 0,-7 0,-11z"/>
  <path class="fil16" d="M834 710c-26,0 -49,18 -69,32 -11,-24 -28,-72 -62,-57 -77,31 8,193 23,191 52,-8 152,-60 152,-126 -3,-26 -19,-40 -44,-40l0 0z"/>
  <path class="fil17" d="M842 718c-25,0 -49,19 -69,32 -8,-22 -27,-69 -61,-57 -78,31 7,193 22,192 53,-9 154,-60 151,-126 0,-27 -18,-41 -43,-41z"/>
  <path class="fil18" d="M698 718c0,-5 -3,-5 -3,-2 -3,4 -3,8 -3,12 3,2 4,0 4,-2 2,-2 2,-6 2,-8l0 0z"/>
  <path class="fil18" d="M719 713c0,-3 0,-6 0,-7 0,-4 -7,-7 -7,-3 0,4 0,8 3,10 0,5 4,3 4,0l0 0z"/>
  <path class="fil18" d="M712 746c0,-4 0,-7 3,-12 0,-2 -6,-4 -6,0 0,5 0,8 0,12 0,3 3,3 3,0z"/>
  <path class="fil18" d="M695 761c0,-2 0,-6 0,-8 1,-4 -3,-4 -4,-3 0,5 0,9 0,11 1,3 4,3 4,0l0 0 0 0z"/>
  <path class="fil18" d="M698 796c0,0 0,-2 0,-4 0,-2 -3,-2 -3,0 1,2 1,4 1,4 0,2 2,2 2,0l0 0 0 0z"/>
  <path class="fil18" d="M721 785c-2,-1 -2,-5 -2,-10 0,-2 -2,-2 -4,-2 -3,0 -3,0 -3,2 0,5 0,9 3,13 2,4 6,2 6,-3z"/>
  <path class="fil18" d="M744 734c2,-4 -7,-6 -7,-2 0,5 0,7 0,9 0,4 4,4 4,1 3,-3 3,-5 3,-8l0 0z"/>
  <path class="fil18" d="M744 780c0,-2 0,-7 0,-9 0,-3 -7,-3 -7,0 0,2 0,7 2,9 0,4 7,2 5,0l0 0z"/>
  <path class="fil18" d="M777 769c0,-1 -4,-4 -4,0 0,2 0,4 0,6 0,3 1,3 4,0 0,-2 0,-4 0,-6z"/>
  <path class="fil18" d="M844 746c0,-1 0,-1 0,-4 0,-1 0,-1 0,-3 3,-2 -4,-5 -4,0 -2,0 -2,2 -2,3 0,3 2,4 2,4 2,3 4,3 4,0z"/>
  <path class="fil18" d="M823 750c0,-4 0,-5 -2,-8 0,-1 -4,-1 -4,0 3,3 3,7 3,8 0,3 3,3 3,0z"/>
  <path class="fil18" d="M799 759c0,-3 -2,-6 -2,-10 0,-4 -4,-4 -4,0 0,4 0,7 2,12 0,3 4,3 4,-2z"/>
  <path class="fil18" d="M735 804c0,-1 -1,-4 -1,-6 0,0 0,0 -3,0 0,0 0,0 0,0 0,5 0,6 3,9 0,0 1,0 1,-3l0 0 0 0z"/>
  <path class="fil18" d="M765 804c0,-1 0,-4 0,-6 0,-4 -5,-4 -5,0 0,2 0,6 2,9 0,1 4,0 3,-3l0 0 0 0z"/>
  <path class="fil18" d="M801 803c-2,-7 -4,-11 -6,-15 0,-3 -4,-3 -4,2 0,4 2,10 6,14 2,0 4,-1 4,-1z"/>
  <path class="fil18" d="M823 792c-2,-4 -2,-7 -2,-8 0,-4 -4,-4 -4,0 0,1 0,6 3,8 1,2 3,2 3,0z"/>
  <path class="fil18" d="M847 780c0,-2 0,-2 0,-5 2,-4 -5,-6 -7,-2 0,2 0,2 0,5 0,2 2,2 2,4 2,0 5,0 5,-2l0 0 0 0z"/>
  <path class="fil18" d="M869 753c0,-3 0,-4 0,-8 -2,-3 -6,-3 -6,1 2,3 2,7 2,9 2,1 4,0 4,-2l0 0z"/>
  <path class="fil18" d="M823 722c0,-2 0,-4 0,-6 -2,-3 -6,0 -6,2 0,2 3,4 3,4 0,2 0,4 0,4 1,2 3,2 3,0 0,0 0,-2 0,-4z"/>
  <path class="fil18" d="M803 726c0,0 -2,-2 -2,-2 -2,0 -2,2 -2,4 0,2 0,4 0,6 0,3 4,3 4,0 0,-2 0,-6 0,-8l0 0 0 0 0 0z"/>
  <path class="fil18" d="M758 759c0,-3 0,-4 0,-9 -2,-1 -6,-1 -6,0 0,5 0,6 2,11 0,3 4,3 4,-2l0 0z"/>
  <path class="fil18" d="M717 816c0,-2 0,-2 0,-4 0,-4 -5,-4 -5,0 0,0 0,2 0,4 0,3 0,3 0,5 0,2 5,2 5,0 0,-2 0,-2 0,-5z"/>
  <path class="fil18" d="M723 851c0,-1 0,-4 0,-5 -2,-3 -2,-4 -2,-9 0,-2 -4,-2 -4,0 -2,6 0,10 4,17 0,0 2,0 2,-3z"/>
  <path class="fil18" d="M750 846c0,-3 0,-6 -2,-9 0,-4 -4,-2 -4,0 2,5 2,6 4,10 0,3 2,3 2,-1l0 0z"/>
  <path class="fil18" d="M782 835c0,-2 0,-2 0,-4 -2,-2 -5,-2 -5,2 1,2 1,4 3,4 0,3 5,0 2,-2z"/>
  <path class="fil18" d="M828 825c-2,-4 -2,-6 -2,-9 -3,-4 -9,-2 -6,3 0,2 0,2 1,4 0,2 0,2 2,4 0,2 5,0 5,-2l0 0 0 0z"/>
  <path class="fil18" d="M787 814c-2,-3 -2,-7 -5,-11 0,-3 -4,-3 -4,1 2,3 2,7 4,10 0,2 5,2 5,0z"/>
  <path class="fil23" d="M655 749c0,-3 0,-3 0,-4 -2,0 -2,0 -3,0 0,0 0,1 0,1 0,0 0,3 0,3 0,1 3,1 3,0l0 0 0 0z"/>
  <path class="fil21" d="M1000 685c-20,-8 -36,6 -40,21 -7,-15 -23,-29 -43,-21 -22,8 -25,35 -17,56 8,23 60,63 60,63 0,0 51,-40 59,-63 8,-21 4,-48 -19,-56l0 0 0 0z"/>
  <path class="fil22" d="M1011 689c-20,-8 -37,9 -44,21 -3,-12 -20,-29 -41,-21 -22,9 -26,35 -18,57 10,23 59,62 59,62 0,0 52,-39 60,-62 11,-22 7,-48 -16,-57l0 0 0 0 0 0z"/>
  <path class="fil23" d="M910 718c-2,0 -4,-2 -4,-2 -2,0 -4,0 -4,0 -2,0 -2,0 -2,2 2,2 2,2 4,2 2,0 2,2 4,2 2,0 2,-4 2,-4l0 0 0 0z"/>
  <path class="fil23" d="M913 706c-3,-3 -3,-3 -5,-4 -2,-3 -4,1 -2,1 0,3 2,3 4,4 0,3 3,0 3,-1z"/>
  <path class="fil23" d="M926 691c0,-4 -5,-2 -4,0 0,2 0,2 0,5 0,0 4,0 4,-3 0,0 0,-2 0,-2l0 0z"/>
  <path class="fil23" d="M988 689c0,-2 -2,-2 -2,0 -2,2 -2,4 -2,7 -2,2 2,2 2,0 0,-3 2,-3 2,-5 0,-2 0,-2 0,-2l0 0z"/>
  <path class="fil23" d="M1004 696c0,2 -1,2 -4,3 0,0 0,0 0,3 0,0 0,1 3,1 1,-1 4,-4 4,-5 0,0 0,-2 -3,-2z"/>
  <path class="fil23" d="M1015 710c-2,0 -4,0 -6,1 -2,0 0,5 2,5 2,-3 4,-3 6,-3 0,-2 0,-3 -2,-3l0 0z"/>
  <path class="fil23" d="M1017 726c-2,0 -4,0 -4,0 -2,0 -2,4 0,4 2,0 4,0 4,0 2,-2 0,-4 0,-4z"/>
  <path class="fil23" d="M910 732l-6 0c-2,0 -2,2 0,2l6 0c3,0 3,-2 0,-2z"/>
  <path class="fil23" d="M914 746c-1,0 -1,0 -4,0 -2,3 0,7 3,4 0,0 1,-1 1,-1 3,0 3,-4 0,-3l0 0 0 0z"/>
  <path class="fil23" d="M924 759c-2,0 -2,0 -3,0 -3,0 -3,5 0,5 1,0 3,0 5,-3 3,-2 -2,-5 -2,-2l0 0 0 0z"/>
  <path class="fil23" d="M939 773c0,0 -2,2 -2,2 -2,0 -2,3 0,3 2,0 4,0 4,-3 2,-2 0,-4 -2,-2l0 0 0 0z"/>
  <path class="fil23" d="M952 782c-2,2 -2,3 -2,6 0,0 0,2 2,0 0,0 1,-3 1,-3 3,-1 0,-3 -1,-3z"/>
  <path class="fil23" d="M945 693c-2,0 -2,0 -4,3 0,2 2,2 4,2 0,-2 0,-2 0,-5 0,0 0,-2 0,0l0 0z"/>
  <path class="fil23" d="M976 782c-2,-2 -2,-4 -4,-4 -2,-5 -5,-3 -5,2 3,2 5,2 7,4 2,0 2,0 2,-2l0 0z"/>
  <path class="fil23" d="M988 769c-2,-1 -4,-4 -6,-5 -2,-3 -6,1 -4,4 2,1 4,1 6,3 2,0 4,-2 4,-2l0 0 0 0z"/>
  <path class="fil23" d="M999 756c0,0 -3,-1 -3,-1 -3,-2 -5,1 -3,4 2,0 2,2 3,2 4,0 4,-5 3,-5z"/>
  <path class="fil23" d="M1011 746c0,-1 0,-1 -2,-1 0,0 -2,-3 -2,-3 -3,-1 -4,3 -3,4 0,0 3,3 3,3 2,0 2,0 2,0 2,0 4,-3 2,-3l0 0 0 0z"/>
  <rect id="rectext" class="fil24" x="64" y="1431" width="2063" height="583">
   <metadata id="CorelCorpID_2">
    <odm name="Nom" value="muestra" type="0"/>
   </metadata>
  </rect>
 </g>
</svg>
